<mxfile host="drawio-plugin" modified="2024-12-09T07:03:03.994Z" agent="Mozilla/5.0 (Macintosh; Intel Mac OS X 10_15_7) AppleWebKit/537.36 (KHTML, like Gecko) Chrome/122.0.0.0 Safari/537.36" version="22.1.22" etag="6LRbf3tQAHI272cRs0YJ" type="embed">
  <diagram id="IvDkrWEhoe80Hysmz0K1" name="Page-1">
    <mxGraphModel dx="1702" dy="1482" grid="0" gridSize="10" guides="0" tooltips="1" connect="1" arrows="1" fold="1" page="0" pageScale="1" pageWidth="850" pageHeight="1100" math="0" shadow="0">
      <root>
        <mxCell id="0" />
        <mxCell id="1" parent="0" />
        <mxCell id="2" value="&lt;span style=&quot;color: rgba(0, 0, 0, 0); font-family: monospace; font-size: 0px; font-weight: 400; text-align: start;&quot;&gt;%3CmxGraphModel%3E%3Croot%3E%3CmxCell%20id%3D%220%22%2F%3E%3CmxCell%20id%3D%221%22%20parent%3D%220%22%2F%3E%3CmxCell%20id%3D%222%22%20value%3D%22backround%26%2310%3B%22%20style%3D%22swimlane%3BfontStyle%3D1%3Balign%3Dcenter%3BverticalAlign%3Dtop%3BchildLayout%3DstackLayout%3Bhorizontal%3D1%3BstartSize%3D26%3BhorizontalStack%3D0%3BresizeParent%3D1%3BresizeParentMax%3D0%3BresizeLast%3D0%3Bcollapsible%3D1%3BmarginBottom%3D0%3B%22%20vertex%3D%221%22%20parent%3D%221%22%3E%3CmxGeometry%20x%3D%22-80%22%20y%3D%22950%22%20width%3D%22160%22%20height%3D%2286%22%20as%3D%22geometry%22%2F%3E%3C%2FmxCell%3E%3CmxCell%20id%3D%223%22%20value%3D%22%2B%20field%3A%20type%22%20style%3D%22text%3BstrokeColor%3Dnone%3BfillColor%3Dnone%3Balign%3Dleft%3BverticalAlign%3Dtop%3BspacingLeft%3D4%3BspacingRight%3D4%3Boverflow%3Dhidden%3Brotatable%3D0%3Bpoints%3D%5B%5B0%2C0.5%5D%2C%5B1%2C0.5%5D%5D%3BportConstraint%3Deastwest%3B%22%20vertex%3D%221%22%20parent%3D%222%22%3E%3CmxGeometry%20y%3D%2226%22%20width%3D%22160%22%20height%3D%2226%22%20as%3D%22geometry%22%2F%3E%3C%2FmxCell%3E%3CmxCell%20id%3D%224%22%20value%3D%22%22%20style%3D%22line%3BstrokeWidth%3D1%3BfillColor%3Dnone%3Balign%3Dleft%3BverticalAlign%3Dmiddle%3BspacingTop%3D-1%3BspacingLeft%3D3%3BspacingRight%3D3%3Brotatable%3D0%3BlabelPosition%3Dright%3Bpoints%3D%5B%5D%3BportConstraint%3Deastwest%3BstrokeColor%3Dinherit%3B%22%20vertex%3D%221%22%20parent%3D%222%22%3E%3CmxGeometry%20y%3D%2252%22%20width%3D%22160%22%20height%3D%228%22%20as%3D%22geometry%22%2F%3E%3C%2FmxCell%3E%3CmxCell%20id%3D%225%22%20value%3D%22%2B%20method(type)%3A%20type%22%20style%3D%22text%3BstrokeColor%3Dnone%3BfillColor%3Dnone%3Balign%3Dleft%3BverticalAlign%3Dtop%3BspacingLeft%3D4%3BspacingRight%3D4%3Boverflow%3Dhidden%3Brotatable%3D0%3Bpoints%3D%5B%5B0%2C0.5%5D%2C%5B1%2C0.5%5D%5D%3BportConstraint%3Deastwest%3B%22%20vertex%3D%221%22%20parent%3D%222%22%3E%3CmxGeometry%20y%3D%2260%22%20width%3D%22160%22%20height%3D%2226%22%20as%3D%22geometry%22%2F%3E%3C%2FmxCell%3E%3C%2Froot%3E%3C%2FmxGraphModel%3E&lt;/span&gt;" style="shape=folder;fontStyle=1;spacingTop=10;tabWidth=50;tabHeight=30;tabPosition=left;html=1;" parent="1" vertex="1">
          <mxGeometry x="147" y="384" width="1197" height="1229" as="geometry" />
        </mxCell>
        <mxCell id="4" value="" style="shape=folder;fontStyle=1;spacingTop=10;tabWidth=68;tabHeight=29;tabPosition=left;html=1;" parent="1" vertex="1">
          <mxGeometry x="573" y="94" width="360" height="270" as="geometry" />
        </mxCell>
        <mxCell id="10" value="&lt;p style=&quot;margin:0px;margin-top:4px;text-align:center;&quot;&gt;&lt;b&gt;main&lt;/b&gt;&lt;/p&gt;&lt;hr size=&quot;1&quot;&gt;&lt;p style=&quot;margin:0px;margin-left:4px;&quot;&gt;+ game&lt;/p&gt;&lt;p style=&quot;margin:0px;margin-left:4px;&quot;&gt;+ mainMenu&lt;/p&gt;&lt;hr size=&quot;1&quot;&gt;&lt;p style=&quot;margin:0px;margin-left:4px;&quot;&gt;+ startGame()&lt;/p&gt;&lt;p style=&quot;margin:0px;margin-left:4px;&quot;&gt;+ closePauseMenu()&lt;/p&gt;&lt;p style=&quot;margin:0px;margin-left:4px;&quot;&gt;+ areYouSureMainMenu()&lt;/p&gt;&lt;p style=&quot;margin:0px;margin-left:4px;&quot;&gt;+ goToMainMenu()&lt;/p&gt;&lt;p style=&quot;margin:0px;margin-left:4px;&quot;&gt;+ continuePause()&lt;/p&gt;" style="verticalAlign=top;align=left;overflow=fill;fontSize=12;fontFamily=Helvetica;html=1;" parent="1" vertex="1">
          <mxGeometry x="611" y="198" width="160" height="150" as="geometry" />
        </mxCell>
        <mxCell id="13" value="" style="edgeStyle=none;html=1;" parent="1" source="11" target="12" edge="1">
          <mxGeometry relative="1" as="geometry" />
        </mxCell>
        <mxCell id="14" value="" style="edgeStyle=none;html=1;" parent="1" source="11" target="10" edge="1">
          <mxGeometry relative="1" as="geometry" />
        </mxCell>
        <mxCell id="11" value="index.html" style="html=1;" parent="1" vertex="1">
          <mxGeometry x="651" y="138" width="80" height="40" as="geometry" />
        </mxCell>
        <mxCell id="12" value="style.css" style="html=1;" parent="1" vertex="1">
          <mxGeometry x="831" y="138" width="80" height="40" as="geometry" />
        </mxCell>
        <mxCell id="17" value="public" style="text;html=1;strokeColor=none;fillColor=none;align=center;verticalAlign=middle;whiteSpace=wrap;rounded=0;" parent="1" vertex="1">
          <mxGeometry x="576" y="94" width="60" height="30" as="geometry" />
        </mxCell>
        <mxCell id="18" value="classes" style="text;html=1;strokeColor=none;fillColor=none;align=center;verticalAlign=middle;whiteSpace=wrap;rounded=0;" parent="1" vertex="1">
          <mxGeometry x="145" y="387" width="60" height="30" as="geometry" />
        </mxCell>
        <mxCell id="19" value="game&#xa;" style="swimlane;fontStyle=1;align=center;verticalAlign=top;childLayout=stackLayout;horizontal=1;startSize=26;horizontalStack=0;resizeParent=1;resizeParentMax=0;resizeLast=0;collapsible=1;marginBottom=0;" parent="1" vertex="1">
          <mxGeometry x="187" y="739" width="210" height="385" as="geometry" />
        </mxCell>
        <mxCell id="20" value="+ raf&#xa;+ canvas&#xa;+ ctx&#xa;+ jumpChargingBarCavas&#xa;+ jumpChargingBar&#xa;+ elementList&#xa;+ level&#xa;+ elementList&#xa;+ player&#xa;+ backround&#xa;+ instance&#xa;+ collisionBlocks" style="text;strokeColor=none;fillColor=none;align=left;verticalAlign=top;spacingLeft=4;spacingRight=4;overflow=hidden;rotatable=0;points=[[0,0.5],[1,0.5]];portConstraint=eastwest;" parent="19" vertex="1">
          <mxGeometry y="26" width="210" height="177" as="geometry" />
        </mxCell>
        <mxCell id="21" value="" style="line;strokeWidth=1;fillColor=none;align=left;verticalAlign=middle;spacingTop=-1;spacingLeft=3;spacingRight=3;rotatable=0;labelPosition=right;points=[];portConstraint=eastwest;strokeColor=inherit;" parent="19" vertex="1">
          <mxGeometry y="203" width="210" height="8" as="geometry" />
        </mxCell>
        <mxCell id="22" value="+ getInstance()&#xa;+ start(level)&#xa;+ stop()&#xa;+ tick()&#xa;+ drawjumpChargingBar()&#xa;+ generatePlatformForLevel(level)&#xa;+ openPauseMenu()&#xa;+ closePauseMenu()&#xa;+ areYouSureMainMenu()&#xa;+ openMainMenu()&#xa;+ continuePause()&#xa;Â " style="text;strokeColor=none;fillColor=none;align=left;verticalAlign=top;spacingLeft=4;spacingRight=4;overflow=hidden;rotatable=0;points=[[0,0.5],[1,0.5]];portConstraint=eastwest;" parent="19" vertex="1">
          <mxGeometry y="211" width="210" height="174" as="geometry" />
        </mxCell>
        <mxCell id="23" value="elementList&#xa;" style="swimlane;fontStyle=1;align=center;verticalAlign=top;childLayout=stackLayout;horizontal=1;startSize=26;horizontalStack=0;resizeParent=1;resizeParentMax=0;resizeLast=0;collapsible=1;marginBottom=0;" parent="1" vertex="1">
          <mxGeometry x="892" y="441" width="251" height="170" as="geometry" />
        </mxCell>
        <mxCell id="24" value="+ ctx&#xa;+ canvas&#xa;" style="text;strokeColor=none;fillColor=none;align=left;verticalAlign=top;spacingLeft=4;spacingRight=4;overflow=hidden;rotatable=0;points=[[0,0.5],[1,0.5]];portConstraint=eastwest;" parent="23" vertex="1">
          <mxGeometry y="26" width="251" height="44" as="geometry" />
        </mxCell>
        <mxCell id="25" value="" style="line;strokeWidth=1;fillColor=none;align=left;verticalAlign=middle;spacingTop=-1;spacingLeft=3;spacingRight=3;rotatable=0;labelPosition=right;points=[];portConstraint=eastwest;strokeColor=inherit;" parent="23" vertex="1">
          <mxGeometry y="70" width="251" height="8" as="geometry" />
        </mxCell>
        <mxCell id="26" value="+ add(element)&#xa;+ get(i)&#xa;+ delete(i)&#xa;+ draw(ctx, canvas)&#xa;+ action()" style="text;strokeColor=none;fillColor=none;align=left;verticalAlign=top;spacingLeft=4;spacingRight=4;overflow=hidden;rotatable=0;points=[[0,0.5],[1,0.5]];portConstraint=eastwest;" parent="23" vertex="1">
          <mxGeometry y="78" width="251" height="92" as="geometry" />
        </mxCell>
        <mxCell id="29" style="edgeStyle=none;html=1;exitX=0.5;exitY=0;exitDx=0;exitDy=0;entryX=-0.003;entryY=0.201;entryDx=0;entryDy=0;entryPerimeter=0;" parent="1" source="19" target="26" edge="1">
          <mxGeometry relative="1" as="geometry">
            <Array as="points">
              <mxPoint x="292" y="537" />
            </Array>
          </mxGeometry>
        </mxCell>
        <mxCell id="30" value="element" style="swimlane;fontStyle=1;align=center;verticalAlign=top;childLayout=stackLayout;horizontal=1;startSize=26;horizontalStack=0;resizeParent=1;resizeParentMax=0;resizeLast=0;collapsible=1;marginBottom=0;" parent="1" vertex="1">
          <mxGeometry x="897" y="667" width="227" height="140" as="geometry" />
        </mxCell>
        <mxCell id="31" value="+ height&#xa;+ width&#xa;+ position&#xa;+ scale&#xa;" style="text;strokeColor=none;fillColor=none;align=left;verticalAlign=top;spacingLeft=4;spacingRight=4;overflow=hidden;rotatable=0;points=[[0,0.5],[1,0.5]];portConstraint=eastwest;" parent="30" vertex="1">
          <mxGeometry y="26" width="227" height="64" as="geometry" />
        </mxCell>
        <mxCell id="32" value="" style="line;strokeWidth=1;fillColor=none;align=left;verticalAlign=middle;spacingTop=-1;spacingLeft=3;spacingRight=3;rotatable=0;labelPosition=right;points=[];portConstraint=eastwest;strokeColor=inherit;" parent="30" vertex="1">
          <mxGeometry y="90" width="227" height="8" as="geometry" />
        </mxCell>
        <mxCell id="33" value="+ action()&#xa;+ draw(ctx, r, g, b, a, x, y, width, height()" style="text;strokeColor=none;fillColor=none;align=left;verticalAlign=top;spacingLeft=4;spacingRight=4;overflow=hidden;rotatable=0;points=[[0,0.5],[1,0.5]];portConstraint=eastwest;" parent="30" vertex="1">
          <mxGeometry y="98" width="227" height="42" as="geometry" />
        </mxCell>
        <mxCell id="42" style="edgeStyle=none;html=1;exitX=0.499;exitY=1.021;exitDx=0;exitDy=0;exitPerimeter=0;entryX=0.528;entryY=-0.002;entryDx=0;entryDy=0;entryPerimeter=0;" parent="1" source="26" target="30" edge="1">
          <mxGeometry relative="1" as="geometry">
            <mxPoint x="484" y="617" as="sourcePoint" />
          </mxGeometry>
        </mxCell>
        <mxCell id="47" value="player&#xa;&#xa;" style="swimlane;fontStyle=1;align=center;verticalAlign=top;childLayout=stackLayout;horizontal=1;startSize=26;horizontalStack=0;resizeParent=1;resizeParentMax=0;resizeLast=0;collapsible=1;marginBottom=0;" parent="1" vertex="1">
          <mxGeometry x="870" y="879" width="260" height="640" as="geometry" />
        </mxCell>
        <mxCell id="48" value="+ position&#xa;+ height&#xa;+ width&#xa;+ imageSrc&#xa;+ cropBoxPosition{x, y}&#xa;+ gravity&#xa;+ scale&#xa;+ animations&#xa;+ velocity {x, y}&#xa;+ d.pressed&#xa;+ a.pressed&#xa;+ w.pressed&#xa;+ pause.pressed&#xa;+ canJump&#xa;+ inJump&#xa;+ lastPressedRight&#xa;+ jumpDuration&#xa;+ maxJumpCharge&#xa;+ chargingJumpTime&#xa;+ startTime&#xa;+ endtime&#xa;+ animationStep&#xa;+ animationJump&#xa;+ walkstate&#xa;+ directionInversion" style="text;strokeColor=none;fillColor=none;align=left;verticalAlign=top;spacingLeft=4;spacingRight=4;overflow=hidden;rotatable=0;points=[[0,0.5],[1,0.5]];portConstraint=eastwest;" parent="47" vertex="1">
          <mxGeometry y="26" width="260" height="364" as="geometry" />
        </mxCell>
        <mxCell id="49" value="" style="line;strokeWidth=1;fillColor=none;align=left;verticalAlign=middle;spacingTop=-1;spacingLeft=3;spacingRight=3;rotatable=0;labelPosition=right;points=[];portConstraint=eastwest;strokeColor=inherit;" parent="47" vertex="1">
          <mxGeometry y="390" width="260" height="8" as="geometry" />
        </mxCell>
        <mxCell id="50" value="+ initEventlisteners()&#xa;+ startedPressingJump()&#xa;+ stoppedPressingJump()&#xa;+ action()&#xa;+ draw(ctx, canvas)&#xa;+ applyGravity()&#xa;+ enableMoving()&#xa;+ checkForHorizontalCollisions()&#xa;+ checkForVerticalCollisions()&#xa;+ checkForCollisions()&#xa;+ updateHitbox()&#xa;+ updateFrames()&#xa;+ updateHorizontalCamera()&#xa;+ updateVerticalCamera()&#xa;+ collision(palyer, block)" style="text;strokeColor=none;fillColor=none;align=left;verticalAlign=top;spacingLeft=4;spacingRight=4;overflow=hidden;rotatable=0;points=[[0,0.5],[1,0.5]];portConstraint=eastwest;" parent="47" vertex="1">
          <mxGeometry y="398" width="260" height="242" as="geometry" />
        </mxCell>
        <mxCell id="51" value="plattform&#xa;" style="swimlane;fontStyle=1;align=center;verticalAlign=top;childLayout=stackLayout;horizontal=1;startSize=26;horizontalStack=0;resizeParent=1;resizeParentMax=0;resizeLast=0;collapsible=1;marginBottom=0;" parent="1" vertex="1">
          <mxGeometry x="1159" y="881" width="160" height="160" as="geometry" />
        </mxCell>
        <mxCell id="52" value="+ position&#xa;+ height&#xa;+ width&#xa;+ imageSrc&#xa;+ cropBoxPosition{x, y}" style="text;strokeColor=none;fillColor=none;align=left;verticalAlign=top;spacingLeft=4;spacingRight=4;overflow=hidden;rotatable=0;points=[[0,0.5],[1,0.5]];portConstraint=eastwest;" parent="51" vertex="1">
          <mxGeometry y="26" width="160" height="84" as="geometry" />
        </mxCell>
        <mxCell id="53" value="" style="line;strokeWidth=1;fillColor=none;align=left;verticalAlign=middle;spacingTop=-1;spacingLeft=3;spacingRight=3;rotatable=0;labelPosition=right;points=[];portConstraint=eastwest;strokeColor=inherit;" parent="51" vertex="1">
          <mxGeometry y="110" width="160" height="8" as="geometry" />
        </mxCell>
        <mxCell id="54" value="+ draw(ctx)&#xa;+ action()" style="text;strokeColor=none;fillColor=none;align=left;verticalAlign=top;spacingLeft=4;spacingRight=4;overflow=hidden;rotatable=0;points=[[0,0.5],[1,0.5]];portConstraint=eastwest;" parent="51" vertex="1">
          <mxGeometry y="118" width="160" height="42" as="geometry" />
        </mxCell>
        <mxCell id="58" value="Extends" style="endArrow=block;endSize=16;endFill=0;html=1;exitX=0.415;exitY=0.018;exitDx=0;exitDy=0;exitPerimeter=0;entryX=0.413;entryY=1.134;entryDx=0;entryDy=0;entryPerimeter=0;" parent="1" source="43" target="33" edge="1">
          <mxGeometry width="160" relative="1" as="geometry">
            <mxPoint x="80" y="870" as="sourcePoint" />
            <mxPoint x="240" y="870" as="targetPoint" />
          </mxGeometry>
        </mxCell>
        <mxCell id="59" value="Extends" style="endArrow=block;endSize=16;endFill=0;html=1;exitX=0.5;exitY=0;exitDx=0;exitDy=0;entryX=0.452;entryY=1.022;entryDx=0;entryDy=0;entryPerimeter=0;" parent="1" source="47" target="33" edge="1">
          <mxGeometry width="160" relative="1" as="geometry">
            <mxPoint x="-3.599999999999909" y="961.5480000000002" as="sourcePoint" />
            <mxPoint x="476.3499999999999" y="835.6279999999999" as="targetPoint" />
          </mxGeometry>
        </mxCell>
        <mxCell id="60" value="Extends" style="endArrow=block;endSize=16;endFill=0;html=1;exitX=0.5;exitY=0;exitDx=0;exitDy=0;entryX=0.48;entryY=1.134;entryDx=0;entryDy=0;entryPerimeter=0;" parent="1" source="51" target="33" edge="1">
          <mxGeometry width="160" relative="1" as="geometry">
            <mxPoint x="480" y="960" as="sourcePoint" />
            <mxPoint x="479.9200000000001" y="830.924" as="targetPoint" />
          </mxGeometry>
        </mxCell>
        <mxCell id="43" value="backround&#xa;" style="swimlane;fontStyle=1;align=center;verticalAlign=top;childLayout=stackLayout;horizontal=1;startSize=26;horizontalStack=0;resizeParent=1;resizeParentMax=0;resizeLast=0;collapsible=1;marginBottom=0;" parent="1" vertex="1">
          <mxGeometry x="597" y="879" width="240" height="144" as="geometry" />
        </mxCell>
        <mxCell id="44" value="+ position&#xa;+ height&#xa;+ width&#xa;+ imageSrc&#xa;+ scale" style="text;strokeColor=none;fillColor=none;align=left;verticalAlign=top;spacingLeft=4;spacingRight=4;overflow=hidden;rotatable=0;points=[[0,0.5],[1,0.5]];portConstraint=eastwest;" parent="43" vertex="1">
          <mxGeometry y="26" width="240" height="84" as="geometry" />
        </mxCell>
        <mxCell id="45" value="" style="line;strokeWidth=1;fillColor=none;align=left;verticalAlign=middle;spacingTop=-1;spacingLeft=3;spacingRight=3;rotatable=0;labelPosition=right;points=[];portConstraint=eastwest;strokeColor=inherit;" parent="43" vertex="1">
          <mxGeometry y="110" width="240" height="8" as="geometry" />
        </mxCell>
        <mxCell id="46" value="+ draw(ctx, r, g, b, a, x, y, width, height)" style="text;strokeColor=none;fillColor=none;align=left;verticalAlign=top;spacingLeft=4;spacingRight=4;overflow=hidden;rotatable=0;points=[[0,0.5],[1,0.5]];portConstraint=eastwest;" parent="43" vertex="1">
          <mxGeometry y="118" width="240" height="26" as="geometry" />
        </mxCell>
        <mxCell id="67" style="edgeStyle=none;html=1;exitX=0;exitY=0;exitDx=0;exitDy=140;exitPerimeter=0;entryX=1;entryY=0.142;entryDx=0;entryDy=0;entryPerimeter=0;" parent="1" source="61" target="2" edge="1">
          <mxGeometry relative="1" as="geometry" />
        </mxCell>
        <mxCell id="61" value="" style="shape=folder;fontStyle=1;spacingTop=10;tabWidth=60;tabHeight=30;tabPosition=left;html=1;" parent="1" vertex="1">
          <mxGeometry x="1418" y="418" width="270" height="250" as="geometry" />
        </mxCell>
        <mxCell id="62" value="levels&#xa;" style="swimlane;fontStyle=1;align=center;verticalAlign=top;childLayout=stackLayout;horizontal=1;startSize=26;horizontalStack=0;resizeParent=1;resizeParentMax=0;resizeLast=0;collapsible=1;marginBottom=0;" parent="1" vertex="1">
          <mxGeometry x="1459" y="471" width="160" height="60" as="geometry" />
        </mxCell>
        <mxCell id="63" value="+ levels" style="text;strokeColor=none;fillColor=none;align=left;verticalAlign=top;spacingLeft=4;spacingRight=4;overflow=hidden;rotatable=0;points=[[0,0.5],[1,0.5]];portConstraint=eastwest;" parent="62" vertex="1">
          <mxGeometry y="26" width="160" height="26" as="geometry" />
        </mxCell>
        <mxCell id="64" value="" style="line;strokeWidth=1;fillColor=none;align=left;verticalAlign=middle;spacingTop=-1;spacingLeft=3;spacingRight=3;rotatable=0;labelPosition=right;points=[];portConstraint=eastwest;strokeColor=inherit;" parent="62" vertex="1">
          <mxGeometry y="52" width="160" height="8" as="geometry" />
        </mxCell>
        <mxCell id="66" value="data" style="text;html=1;strokeColor=none;fillColor=none;align=center;verticalAlign=middle;whiteSpace=wrap;rounded=0;" parent="1" vertex="1">
          <mxGeometry x="1418" y="419" width="60" height="30" as="geometry" />
        </mxCell>
        <mxCell id="68" style="edgeStyle=none;html=1;exitX=0.5;exitY=1;exitDx=0;exitDy=0;exitPerimeter=0;entryX=0.506;entryY=0.022;entryDx=0;entryDy=0;entryPerimeter=0;" parent="1" source="4" target="2" edge="1">
          <mxGeometry relative="1" as="geometry">
            <mxPoint x="580" y="349" as="sourcePoint" />
            <mxPoint x="420" y="349.4000000000001" as="targetPoint" />
          </mxGeometry>
        </mxCell>
        <mxCell id="71" style="edgeStyle=none;html=1;exitX=0.504;exitY=1.001;exitDx=0;exitDy=0;entryX=0.576;entryY=1.203;entryDx=0;entryDy=0;entryPerimeter=0;exitPerimeter=0;" parent="1" source="22" target="54" edge="1">
          <mxGeometry relative="1" as="geometry">
            <mxPoint x="174.99999999999955" y="1573" as="sourcePoint" />
            <mxPoint x="774.2469999999994" y="1371.4919999999997" as="targetPoint" />
            <Array as="points">
              <mxPoint x="293" y="1582" />
              <mxPoint x="1251" y="1582" />
            </Array>
          </mxGeometry>
        </mxCell>
        <mxCell id="72" style="edgeStyle=none;html=1;exitX=1.014;exitY=0.989;exitDx=0;exitDy=0;exitPerimeter=0;" parent="1" source="20" edge="1">
          <mxGeometry relative="1" as="geometry">
            <mxPoint x="353.99999999999955" y="1403" as="sourcePoint" />
            <mxPoint x="591" y="940" as="targetPoint" />
            <Array as="points" />
          </mxGeometry>
        </mxCell>
        <mxCell id="73" style="edgeStyle=none;html=1;entryX=0;entryY=0.5;entryDx=0;entryDy=0;" parent="1" target="48" edge="1">
          <mxGeometry relative="1" as="geometry">
            <mxPoint x="395" y="1087" as="sourcePoint" />
            <mxPoint x="586.06" y="1081" as="targetPoint" />
            <Array as="points" />
          </mxGeometry>
        </mxCell>
      </root>
    </mxGraphModel>
  </diagram>
</mxfile>
